<svg width="200" height="200" viewBox="0 0 200 200" fill="none" xmlns="http://www.w3.org/2000/svg">
<g clip-path="url(#clip0_0_1)">
<path d="M0 100C0 44.7715 44.7715 0 100 0V0C155.228 0 200 44.7715 200 100V100C200 155.228 155.228 200 100 200V200C44.7715 200 0 155.228 0 100V100Z" fill="#179FC0"/>
<path d="M134.696 134.488C133.757 134.744 132.264 135 130.216 135.256C128.253 135.512 126.291 135.64 124.328 135.64C122.365 135.64 120.616 135.469 119.08 135.128C117.629 134.872 116.392 134.36 115.368 133.592C114.344 132.824 113.576 131.757 113.064 130.392C112.552 129.027 112.296 127.235 112.296 125.016V105.048H87.72V134.488C86.7813 134.744 85.288 135 83.24 135.256C81.2773 135.512 79.3147 135.64 77.352 135.64C75.3893 135.64 73.64 135.469 72.104 135.128C70.6533 134.872 69.416 134.36 68.392 133.592C67.368 132.824 66.6 131.757 66.088 130.392C65.576 129.027 65.32 127.235 65.32 125.016V57.432C66.2587 57.2613 67.752 57.048 69.8 56.792C71.848 56.4507 73.8107 56.28 75.688 56.28C77.6507 56.28 79.3573 56.4507 80.808 56.792C82.344 57.048 83.624 57.56 84.648 58.328C85.672 59.096 86.44 60.1627 86.952 61.528C87.464 62.8933 87.72 64.6853 87.72 66.904V87.384H112.296V57.432C113.235 57.2613 114.728 57.048 116.776 56.792C118.824 56.4507 120.787 56.28 122.664 56.28C124.627 56.28 126.333 56.4507 127.784 56.792C129.32 57.048 130.6 57.56 131.624 58.328C132.648 59.096 133.416 60.1627 133.928 61.528C134.44 62.8933 134.696 64.6853 134.696 66.904V134.488Z" fill="white"/>
</g>
<defs>
<clipPath id="clip0_0_1">
<path d="M0 100C0 44.7715 44.7715 0 100 0V0C155.228 0 200 44.7715 200 100V100C200 155.228 155.228 200 100 200V200C44.7715 200 0 155.228 0 100V100Z" fill="white"/>
</clipPath>
</defs>
</svg>
